<svg id="Layer_1" data-name="Layer 1" xmlns="http://www.w3.org/2000/svg" viewBox="0 0 512 512"><defs><style>.cls-1{fill:#fbecec;}.cls-2,.cls-9{fill:#9d2d51;}.cls-3{fill:#fdf8ed;}.cls-4{fill:#fad88b;}.cls-5{fill:#f3be45;}.cls-6{fill:#f8e7d8;}.cls-7{fill:#1d1e1c;}.cls-8{fill:#eaa1a3;}.cls-9{font-size:99.57px;font-family:ThePrincessPersonalUse, The Princess;}.cls-10{letter-spacing:-0.02em;}</style></defs><title>logo</title><circle class="cls-1" cx="258.7" cy="290.31" r="176.08"/><path class="cls-2" d="M296.07,46.85C324.34,57.78,329.92,92,327.87,119a117.38,117.38,0,0,1-10.78,41.28c-6.43,13.57-15.91,25-25.68,36.28a54,54,0,0,0-15-8.49c1.24-8.27,1.51-17.12-.74-25.23a2.57,2.57,0,0,0,1.11-1.89c-.06-1.11-1.3-1.26-2.17-1.52-1.94-.56-3.9-1.11-5.88-1.55a.76.76,0,0,0-.56-.64,7.79,7.79,0,0,1-4.59-3.56,10.79,10.79,0,0,1-1.15-4.07c12.62-1.31,25.89-5.84,32.64-17.28,3.28-5.55,4.84-11.92,5.7-18.26.79-5.74,1.88-12.63.87-18.47l1.15.35a.82.82,0,0,0,.44-1.58c-15.62-4.9-28.78-16.94-27.88-34.46a.39.39,0,0,0-.35-.44.4.4,0,0,0-.7-.07c-6.22,12.59-17,21.06-29,27.82-14.12,7.94-28.55,13.49-44.75,14.87a.69.69,0,0,0,0,1.38c1.24,0,2.47,0,3.71-.12.33,13.61,2.79,26.31,14.08,35.15,9.48,7.41,21.79,11,33.87,11.46a8.56,8.56,0,0,1-5.78,6.33.8.8,0,0,0-.56.54,47.72,47.72,0,0,0-6.17,3.35c-1.13.71-2,1.34-1.71,2.77a4,4,0,0,0,.68,1.46.24.24,0,0,0,0,.08c-1.32,8.13-.07,16.83,1.92,24.8a49.16,49.16,0,0,0-7.09,3.94,64,64,0,0,0-11,9.25c-27.77-14.63-47.87-42.35-52.39-73.54-5-34.68,4.52-76.1,37.27-94.24,18.18-10.08,38.7-9.33,57.08-.51-.48,2-1,3.92-1.55,5.88a.79.79,0,0,0,0,.3.65.65,0,0,0-.21,1,28.18,28.18,0,0,0,6.72,6.35c6.48,5,15,7.16,23.13,6.77A.82.82,0,0,0,293,52.9,42.66,42.66,0,0,1,296.07,46.85ZM286.36,186c25.13-20.16,40.93-53.88,38.3-86.26a.28.28,0,0,0-.56,0c.12,33.13-13,64-38.64,85.36C284.82,185.63,285.73,186.52,286.36,186ZM323,90.68c.07.66,1.1.68,1,0a50.32,50.32,0,0,0-23.87-38c-.31-.19-.58.29-.28.48A52.17,52.17,0,0,1,323,90.68Zm-5.74,5.49c.6.12.86-.79.25-.92a51.13,51.13,0,0,1-22.92-11.67c-6.34-5.69-14.82-15.87-13.26-25,.05-.35-.45-.51-.54-.15-2.08,8.6,5.5,18.32,11.18,24A49.16,49.16,0,0,0,317.26,96.17Zm-38.15,73.14c24-12.73,39.72-39.54,37.92-66.85a.3.3,0,0,0-.59,0c.76,27.11-13.73,53.2-37.85,66C278,168.74,278.52,169.62,279.11,169.31ZM313.93,80.8a.59.59,0,1,0,1.07-.46,51.27,51.27,0,0,0-15.6-20.49c-.3-.24-.76.17-.44.45A55.11,55.11,0,0,1,313.93,80.8Zm-3.43,4.71c.5.35,1-.46.48-.8a85.61,85.61,0,0,1-22.61-23.39.2.2,0,0,0-.35.21A76.64,76.64,0,0,0,310.5,85.51Zm-33.15,67.05c20.91-6.68,34.09-27,33-48.71,0-.63-1-.64-1,0,1.08,21.75-12,40.54-32.14,48.23C276.94,152.19,277.06,152.65,277.35,152.56ZM269.54,49.37c.29-.53-.53-1-.81-.47a94.47,94.47,0,0,1-59.67,46.64c-.16,0-.09.3.07.26A92.75,92.75,0,0,0,269.54,49.37Zm-6.75,1.24c.49-.59-.34-1.44-.85-.86a149,149,0,0,1-64.78,43.79c-.07,0,0,.12,0,.1A134.59,134.59,0,0,0,262.79,50.61Zm-1-12a.32.32,0,0,0,0-.63c-39-2.78-81.93,20.85-89.16,61.65-.12.65.85.93,1,.28a74.5,74.5,0,0,1,30.62-45.54C221.26,42.66,241.48,38.59,261.81,38.6Zm-.39,4.84a.21.21,0,0,0-.12-.41c-26,7-56,18.52-71.72,41.89-.35.54.48,1,.85.49a90.8,90.8,0,0,1,30-25.48C233.5,52.84,247.61,48.74,261.42,43.44Zm-6.29,9.38c.54-.42-.21-1.17-.75-.76C237.1,65.62,218.19,76.47,198.21,85.5c-.24.12-.06.56.19.45C218.85,77.86,237.85,66.36,255.13,52.82Zm-7.61-18.36c.6.09.86-.83.25-.91-26.92-3.64-53.74,9.69-65.91,34.19-.07.16.15.3.24.14C195.08,44.26,220.61,30.69,247.52,34.46ZM238,151.62c.63.13.9-.83.26-1a50.52,50.52,0,0,1-28.91-17.08c-.2-.24-.52.1-.33.32A50.4,50.4,0,0,0,238,151.62Zm-1.91,9.8a.54.54,0,0,0,.29-1c-24.91-7.62-41.24-29.93-40.5-56.1,0-.22-.34-.22-.35,0C193.86,130.24,210.89,154.59,236.1,161.42Zm-1.38,10.83c.63.3,1.18-.62.56-.93-16.58-8.56-29.09-21-38.36-37.14-.17-.3-.62,0-.47.28C204.26,150.77,218.47,164.46,234.72,172.25Zm-.28,13.1c.73.29,1-.87.33-1.16-35-14.36-53.64-51.82-45.13-88.53a.29.29,0,0,0-.56-.15C179,132.38,199.11,171.32,234.44,185.35Zm-11.33,10.93c.67.42,1.27-.63.61-1.05-15.88-10.08-27.63-25.12-36-41.82-9.35-18.77-13.7-40.77-4.24-60.36.12-.27-.26-.5-.4-.24-9.74,18.51-6.19,40,2.24,58.3C193.66,169.07,206.09,185.78,223.11,196.28Z"/><path class="cls-3" d="M344.56,335.69a1,1,0,0,0-.68.11c-25.46,14.74-54.94,20.05-84.07,20.26-28.59.21-56.91-4-81.85-18.64l.06,0A44.52,44.52,0,0,0,185,324.92a10.88,10.88,0,0,0,11.72,10c6.56-.49,10.63-5.62,13.29-11.18-1.37,9.87,6.35,19.09,16.6,20.89s21.81-3.84,24.18-13.85c1.84,9.26,10.72,15,20.6,13.89a16.68,16.68,0,0,0,15.48-15.9,17.71,17.71,0,0,0,19.27,12.33c5-.68,11.81-3.5,14.51-8,1.59-2.67,1.84-6.09,1.45-9.49,3.84,5.74,11.18,8.72,18.34,7.67A50.66,50.66,0,0,0,344.56,335.69Z"/><path class="cls-4" d="M274,160.52c.73.24,1.42.12,1.17.88-.14.44-1.23,1.08-1.55,1.36l-1.54,1.35c-.86.75-1.72,1.49-2.55,2.25-.12-.49-.22-1-.34-1.49a.48.48,0,0,0-.94.13c.57,7.16,1.83,14.3,2.94,21.39a46.28,46.28,0,0,0-25.46.89l-.13-.39a.77.77,0,0,0,.54-.66,128.31,128.31,0,0,0,1.19-16.41.67.67,0,0,0,0-.71c0-1.24-.07-2.47-.17-3.71a.37.37,0,0,0-.73,0c-.1,1-.19,2-.28,2.94-.84-.49-1.68-1-2.48-1.54-1-.71-2.93-2-3.49-3.14-1-2.12,1.48-2.94,2.84-3.85,1-.72,2.06-1.46,3-2.26a.79.79,0,0,0,.54.4c-.49.07-.79.76-.25,1a24.23,24.23,0,0,0,21.58.12.54.54,0,0,0,.28-.3.62.62,0,0,0,.3-.16c1.14.44,2.28.84,3.44,1.22C272.61,160.09,273.3,160.31,274,160.52Z"/><path class="cls-4" d="M335.92,325.08c-7.41-1.23-13.12-6.28-16.22-13,0-.45,0-.9.05-1.33a.86.86,0,0,0-1.71,0c-.45,9-3.54,19.85-13.82,21.67C295.07,334,290,325.07,286.51,318c.12-.75.21-1.51.28-2.26.1-1.14-1.65-1.12-1.76,0-.93,9.29-5.46,19.45-16,20.44-10.16,1-17.49-7.43-17.41-17.1,0-.37.05-.73.06-1.09.05-1-1.39-.94-1.5,0C249,328.51,241,336.89,230,336.47c-5.09-.19-10.46-2.4-13.46-6.65-2.8-4-3.35-8.94-3.7-13.65a.4.4,0,0,0-.1-.25c.06-.18.14-.34.2-.51.28-.81-1-1.15-1.27-.35-1.88,5.38-5.8,10.42-11.71,11.48a10.69,10.69,0,0,1-12.78-8.93c3.65-15.57,2.26-33.1,5.51-48.26,2.66-12.42,7.66-24.6,12.81-36.17,4.9-11,10.88-21.78,19.45-30.38A59.78,59.78,0,0,1,241.32,191a.78.78,0,0,0,1.07-.48,43.94,43.94,0,0,1,13.71-3.72c11.76-1.13,23.36,3.14,32.7,10.13,21,15.73,27.95,43,32,67.58C324,284.14,325.1,307.54,335.92,325.08Z"/><path class="cls-5" d="M339.27,329.89c-8.43.91-14.92-3.83-18.18-11.16-.22-.83-.45-1.64-.71-2.41a22,22,0,0,0,16.51,10.51.66.66,0,0,0,.14,0C337.73,327.87,338.49,328.88,339.27,329.89Z"/><path class="cls-5" d="M319.11,317.08c1.16,4,2,8.49,1.06,12.55-1.24,5.5-7.76,8.58-12.83,9.74-10.83,2.47-19.07-5.76-20.38-15.71,0-.56,0-1.12,0-1.68,3.4,7.08,9.23,13.78,17.68,12.27C313.3,332.7,317.6,325.07,319.11,317.08Z"/><path class="cls-5" d="M285.43,322.75c.13,8.9-2,17.72-12,20.11a20.11,20.11,0,0,1-15.13-2.54c-4.63-3.05-6.35-8.09-7.08-13.3,0-.41,0-.83,0-1.25A17.11,17.11,0,0,0,268.41,338C277.64,337.48,283,330.71,285.43,322.75Z"/><path class="cls-5" d="M249.68,326.07c0,12.12-12,19.38-23.45,17.07S208.89,330.31,212,319.51c.66,10.08,6.87,18.17,18,18.59A21.11,21.11,0,0,0,249.68,326.07Z"/><path class="cls-5" d="M209.71,321.48c-1.9,4.52-4.48,8.88-9,11.13-7.5,3.72-14.71-2.07-15-9.59.33-1,.65-2,.93-3.07,1.08,4.71,6,8,11.07,8.09S206.85,325.35,209.71,321.48Z"/><path class="cls-5" d="M309,31.2a46.45,46.45,0,0,0-17.91,21.5c-10.19-.88-20.47-3.65-26.94-12.18a.61.61,0,0,0,.09-.16,77.5,77.5,0,0,0,5-25.3,72.34,72.34,0,0,1,2.15,20.51A.91.91,0,0,0,273,36,116.64,116.64,0,0,1,302.15,3.32a201.14,201.14,0,0,1-16,37,.94.94,0,0,0,1.47,1.12A46.74,46.74,0,0,1,309,31.2Z"/><path class="cls-6" d="M275,163.42c.58,8.16,1.06,15.91,0,24.07-.76-.25-1.52-.5-2.29-.72a.87.87,0,0,0,.24-.76c-.95-6-1.79-12.08-3-18l.16-.09c1.56-1.33,3.05-2.75,4.56-4.13Z"/><path class="cls-6" d="M245.59,186.89l.13.39c-1.24.4-2.47.85-3.69,1.36-1.87-7.81-2.19-15.43-2.59-23.44a25,25,0,0,0,2,1.77,19,19,0,0,0,4.56,2.86c-.44,5.47-.67,10.95-1.34,16.4C244.59,186.82,245.14,187,245.59,186.89Z"/><path class="cls-7" d="M346.19,334.55c.81.75-.15,1.9-1,1.6a.92.92,0,0,1-.31,1.33c-25.75,14.9-55.58,20.31-85.05,20.52-28.25.21-59.46-3.11-83.19-19.82a.68.68,0,0,1,.24-1.23.49.49,0,0,1,.1-.39c8.8-12.21,9.79-27.41,10.8-41.92,1.05-15,3.06-29,8.3-43.18,6.16-16.69,13.22-34.36,25.27-47.68a101.26,101.26,0,0,1-54-86.2c-.67-19.49,2-39.65,11.75-56.81,8.11-14.23,20.67-26.09,36.18-31.78s35.48-5.73,49.63,3.89a95.21,95.21,0,0,0,2.6-24,.9.9,0,0,1,1.76-.24,74.43,74.43,0,0,1,4,23.67A119.24,119.24,0,0,1,303.41.14c.64-.47,1.53.32,1.32,1a205.62,205.62,0,0,1-14.9,36.22,48.54,48.54,0,0,1,23.66-8.64.9.9,0,0,1,.46,1.67,44.36,44.36,0,0,0-17.18,15.31c28.61,7.68,34.52,45.13,33.24,70.18a120.8,120.8,0,0,1-10,42.54c-6.54,14.82-16.61,27.16-27.12,39.3,18.73,15.95,25.54,41.18,29.46,64.52C326.41,286.42,326.77,316.8,346.19,334.55Zm-2.31,1.25a1,1,0,0,1,.68-.11,50.66,50.66,0,0,1-4.17-4.39c-7.16,1.05-14.5-1.93-18.34-7.67.39,3.4.14,6.82-1.45,9.49-2.7,4.52-9.56,7.34-14.51,8a17.71,17.71,0,0,1-19.27-12.33,16.68,16.68,0,0,1-15.48,15.9c-9.88,1.07-18.76-4.63-20.6-13.89-2.37,10-13.88,15.64-24.18,13.85s-18-11-16.6-20.89c-2.66,5.56-6.73,10.69-13.29,11.18a10.88,10.88,0,0,1-11.72-10A44.52,44.52,0,0,1,178,337.38l-.06,0c24.94,14.63,53.26,18.85,81.85,18.64C288.94,355.85,318.42,350.54,343.88,335.8Zm-22.79-17.07c3.26,7.33,9.75,12.07,18.18,11.16-.78-1-1.54-2-2.24-3.07a.66.66,0,0,1-.14,0,22,22,0,0,1-16.51-10.51C320.64,317.09,320.87,317.9,321.09,318.73ZM327.87,119c2.05-26.94-3.53-61.17-31.8-72.1a42.66,42.66,0,0,0-3.12,6,.82.82,0,0,1-.33,1.55c-8.15.39-16.65-1.72-23.13-6.77a28.18,28.18,0,0,1-6.72-6.35.65.65,0,0,1,.21-1,.79.79,0,0,1,0-.3c.56-2,1.07-3.91,1.55-5.88-18.38-8.82-38.9-9.57-57.08.51-32.75,18.14-42.3,59.56-37.27,94.24,4.52,31.19,24.62,58.91,52.39,73.54a64,64,0,0,1,11-9.25,49.16,49.16,0,0,1,7.09-3.94c-2-8-3.24-16.67-1.92-24.8a.24.24,0,0,1,0-.08,4,4,0,0,1-.68-1.46c-.25-1.43.58-2.06,1.71-2.77a47.72,47.72,0,0,1,6.17-3.35.8.8,0,0,1,.56-.54,8.56,8.56,0,0,0,5.78-6.33c-12.08-.47-24.39-4-33.87-11.46-11.29-8.84-13.75-21.54-14.08-35.15-1.24.08-2.47.13-3.71.12a.69.69,0,0,1,0-1.38c16.2-1.38,30.63-6.93,44.75-14.87,12-6.76,22.75-15.23,29-27.82a.4.4,0,0,1,.7.07.39.39,0,0,1,.35.44c-.9,17.52,12.26,29.56,27.88,34.46a.82.82,0,0,1-.44,1.58l-1.15-.35c1,5.84-.08,12.73-.87,18.47-.86,6.34-2.42,12.71-5.7,18.26-6.75,11.44-20,16-32.64,17.28a10.79,10.79,0,0,0,1.15,4.07,7.79,7.79,0,0,0,4.59,3.56.76.76,0,0,1,.56.64c2,.44,3.94,1,5.88,1.55.87.26,2.11.41,2.17,1.52a2.57,2.57,0,0,1-1.11,1.89c2.25,8.11,2,17,.74,25.23a54,54,0,0,1,15,8.49c9.77-11.26,19.25-22.71,25.68-36.28A117.38,117.38,0,0,0,327.87,119ZM319.7,312.07c3.1,6.73,8.81,11.78,16.22,13C325.1,307.54,324,284.14,320.77,264.5c-4-24.6-10.94-51.85-32-67.58-9.34-7-20.94-11.26-32.7-10.13a43.94,43.94,0,0,0-13.71,3.72.78.78,0,0,1-1.07.48,59.78,59.78,0,0,0-16.41,11.81c-8.57,8.6-14.55,19.37-19.45,30.38-5.15,11.57-10.15,23.75-12.81,36.17-3.25,15.16-1.86,32.69-5.51,48.26a10.69,10.69,0,0,0,12.78,8.93c5.91-1.06,9.83-6.1,11.71-11.48.28-.8,1.55-.46,1.27.35-.06.17-.14.33-.2.51a.4.4,0,0,1,.1.25c.35,4.71.9,9.67,3.7,13.65,3,4.25,8.37,6.46,13.46,6.65,11,.42,19-8,20.24-18.48.11-.94,1.55-1,1.5,0,0,.36,0,.72-.06,1.09-.08,9.67,7.25,18.06,17.41,17.1,10.52-1,15.05-11.15,16-20.44.11-1.12,1.86-1.14,1.76,0-.07.75-.16,1.51-.28,2.26,3.49,7.07,8.56,16,17.71,14.41,10.28-1.82,13.37-12.68,13.82-21.67a.86.86,0,0,1,1.71,0C319.74,311.17,319.72,311.62,319.7,312.07Zm.47,17.56c.92-4.06.1-8.53-1.06-12.55-1.51,8-5.81,15.62-14.52,17.17-8.45,1.51-14.28-5.19-17.68-12.27,0,.56,0,1.12,0,1.68,1.31,9.95,9.55,18.18,20.38,15.71C312.41,338.21,318.93,335.13,320.17,329.63Zm-21.07-216c.79-5.79,2-13,.72-18.75-14.21-5.16-26.58-17.43-25.54-33.3-5.18,12-16.45,20.19-27.54,26.52C234.25,95.26,220,102,205.32,103.22c.71,7.24,1.21,14.84,4.21,21.55a34.15,34.15,0,0,0,11.94,13.78c9.1,6.29,20.4,9.28,31.47,9.61a.57.57,0,0,1,.41,0c1.9.06,3.79,0,5.66-.08,13.23-.75,28-5,34.91-17.26C296.88,125.58,298.3,119.6,299.1,113.66Zm-8-61A46.45,46.45,0,0,1,309,31.2a46.74,46.74,0,0,0-21.37,10.19.94.94,0,0,1-1.47-1.12,201.14,201.14,0,0,0,16-36.95A116.64,116.64,0,0,0,273,36a.91.91,0,0,1-1.68-.46,72.34,72.34,0,0,0-2.15-20.51,77.5,77.5,0,0,1-5,25.3.61.61,0,0,1-.09.16C270.62,49.05,280.9,51.82,291.09,52.7ZM273.4,342.86c10.05-2.39,12.16-11.21,12-20.11-2.39,8-7.79,14.73-17,15.22a17.11,17.11,0,0,1-17.25-12.2c0,.42,0,.84,0,1.25.73,5.21,2.45,10.25,7.08,13.3A20.11,20.11,0,0,0,273.4,342.86Zm1.76-181.46c.25-.76-.44-.64-1.17-.88s-1.38-.43-2.06-.66c-1.16-.38-2.3-.78-3.44-1.22a.62.62,0,0,1-.3.16.54.54,0,0,1-.28.3,24.23,24.23,0,0,1-21.58-.12c-.54-.27-.24-1,.25-1a.79.79,0,0,1-.54-.4c-1,.8-2,1.54-3,2.26-1.36.91-3.86,1.73-2.84,3.85.56,1.17,2.51,2.43,3.49,3.14.8.57,1.64,1,2.48,1.54.09-1,.18-2,.28-2.94a.37.37,0,0,1,.73,0c.1,1.24.14,2.47.17,3.71a.67.67,0,0,1,0,.71,128.31,128.31,0,0,1-1.19,16.41.77.77,0,0,1-.54.66c-.45.15-1-.07-.93-.66.67-5.45.9-10.93,1.34-16.4a19,19,0,0,1-4.56-2.86,25,25,0,0,1-2-1.77c.4,8,.72,15.63,2.59,23.44,1.22-.51,2.45-1,3.69-1.36a46.28,46.28,0,0,1,25.46-.89c-1.11-7.09-2.37-14.23-2.94-21.39a.48.48,0,0,1,.94-.13c.12.5.22,1,.34,1.49.83-.76,1.69-1.5,2.55-2.25l1.54-1.35C273.93,162.48,275,161.84,275.16,161.4ZM275,187.49c1.06-8.16.58-15.91,0-24.07l-.36.32c-1.51,1.38-3,2.8-4.56,4.13l-.16.09c1.24,6,2.08,12,3,18a.87.87,0,0,1-.24.76C273.43,187,274.19,187.24,275,187.49Zm-8.54-29.22a9.22,9.22,0,0,1-4-3.61,8,8,0,0,1-1.26-5l-.53.05c-2.3.18-4.64.24-7,.19a8.93,8.93,0,0,1-6.64,8,.76.76,0,0,1-.26,0,.42.42,0,0,1,.19.06A22.68,22.68,0,0,0,266.41,158.27ZM226.23,343.14c11.46,2.31,23.47-4.95,23.45-17.07a21.11,21.11,0,0,1-19.72,12c-11.14-.42-17.35-8.51-18-18.59C208.89,330.31,214.82,340.84,226.23,343.14Zm-25.56-10.53c4.56-2.25,7.14-6.61,9-11.13-2.86,3.87-7,6.69-12.09,6.56s-10-3.38-11.07-8.09c-.28,1-.6,2.05-.93,3.07C186,330.54,193.17,336.33,200.67,332.61Z"/><path class="cls-7" d="M324.66,99.75c2.63,32.38-13.17,66.1-38.3,86.26-.63.51-1.54-.38-.9-.9,25.64-21.38,38.76-52.23,38.64-85.36A.28.28,0,0,1,324.66,99.75Z"/><path class="cls-7" d="M324,90.68c.06.68-1,.66-1,0A52.17,52.17,0,0,0,299.89,53.2c-.3-.19,0-.67.28-.48A50.32,50.32,0,0,1,324,90.68Z"/><path class="cls-7" d="M317.51,95.25c.61.13.35,1-.25.92A49.16,49.16,0,0,1,292,82.49c-5.68-5.72-13.26-15.44-11.18-24,.09-.36.59-.2.54.15-1.56,9.11,6.92,19.29,13.26,25A51.13,51.13,0,0,0,317.51,95.25Z"/><path class="cls-7" d="M317,102.46c1.8,27.31-13.89,54.12-37.92,66.85-.59.31-1.1-.57-.52-.88,24.12-12.77,38.61-38.86,37.85-66A.3.3,0,0,1,317,102.46Z"/><path class="cls-7" d="M315,80.34a.59.59,0,1,1-1.07.46,55.11,55.11,0,0,0-15-20.5c-.32-.28.14-.69.44-.45A51.27,51.27,0,0,1,315,80.34Z"/><path class="cls-7" d="M311,84.71c.48.34,0,1.15-.48.8a76.64,76.64,0,0,1-22.48-24,.2.2,0,0,1,.35-.21A85.61,85.61,0,0,0,311,84.71Z"/><path class="cls-7" d="M310.38,103.85c1.06,21.7-12.12,42-33,48.71-.29.09-.41-.37-.12-.48,20.13-7.69,33.22-26.48,32.14-48.23C309.35,103.21,310.35,103.22,310.38,103.85Z"/><path class="cls-6" d="M299.82,94.91c1.26,5.76.07,13-.72,18.75-.8,5.94-2.22,11.92-5.18,17.17C287,143.09,272.24,147.34,259,148.09c-1.87.11-3.76.14-5.66.08a.57.57,0,0,0-.41,0c-11.07-.33-22.37-3.32-31.47-9.61a34.15,34.15,0,0,1-11.94-13.78c-3-6.71-3.5-14.31-4.21-21.55,14.63-1.18,28.93-8,41.42-15.09,11.09-6.33,22.36-14.51,27.54-26.52C273.24,77.48,285.61,89.75,299.82,94.91ZM298,111.26c.59.25,1-.77.44-1.06a32,32,0,0,0-3.85-1.38.8.8,0,0,0-1.48.15c-2.51,9.82-13.47,8.33-19,2.35-.41-.44-1.2.14-.85.65,3.66,5.34,10.85,7.1,16,4.57a6,6,0,0,0,3.61,2.43.7.7,0,0,0,.38-1.35,6.49,6.49,0,0,1-2.94-1.69,9.76,9.76,0,0,0,2.42-2.22c.91.61,1.92,1.1,2.87,1.63a.61.61,0,0,0,.62-1.06l-1.52-1a.49.49,0,0,0-.57,0l-.87-.37a11.26,11.26,0,0,0,1.35-3.15c.63.3,1.26.6,1.9.88,0,0,0,0,0,0l.09,0A12,12,0,0,0,298,111.26Zm-17.06,17.68c2.26,1,10.75,1.32,10.22-2.91-.58-4.55-9-3.08-11.56-1.89a.44.44,0,0,0,0,.76,3.33,3.33,0,0,0-.25.28C278.2,126.77,279.41,128.29,280.89,128.94Zm-19.07,3.28c.35-.52-.32-1.06-.81-.81-1.1.56-2,1.22-3.34,1a3,3,0,0,1-2.32-2.19c-.61-2.35,1.82-3.75,3.84-3,.36.14.68-.41.38-.67-2.62-2.23-6.18.68-5.61,3.71C254.59,133.69,259.69,135.33,261.82,132.22Zm-1.63,8.06c.74-.74,1.76-2.18,1-3.24-.62-.86-1.85-.51-2.57,0-.44.29-.77.72-1.21,1-.7.5-1,.12-1.65-.3s-2-.87-2.54.13.39,2.59,1,3.27a3.42,3.42,0,0,0,3.48,1.11.41.41,0,0,0,.12-.73A4.81,4.81,0,0,0,260.19,140.28ZM237.8,114.39c.28-1-1.12-1.3-1.46-.4-2.88,7.53-12.08,8.08-16.23,1.34a.48.48,0,0,0-.45-.25.53.53,0,0,0-.71-.31,22,22,0,0,0-3.76,2,.74.74,0,0,0,.75,1.27,19.35,19.35,0,0,0,3.24-2.28v.07a10.36,10.36,0,0,0,1.5,2.38,32.94,32.94,0,0,0-2.84,1.93c-.65.52.21,1.64.88,1.15a29.32,29.32,0,0,0,2.72-2.28,9.24,9.24,0,0,0,2.29,1.57,4.46,4.46,0,0,1-1,1.69,6.53,6.53,0,0,1-1.74,1.07c-.78.44-.22,1.49.58,1.37,1.57-.27,2.87-2.16,3-3.74A10.12,10.12,0,0,0,237.8,114.39Zm-14.59,19.2c2.33,1.06,11.24-.15,9.24-4.28-.83-1.72-3.24-1.8-4.88-1.83-1.36,0-3.62-.14-5.1.65l-.17.1-.28.19-.27.26a2.31,2.31,0,0,0-.24.29l-.11.13C220.37,130.79,221.58,132.86,223.21,133.59Z"/><path class="cls-7" d="M298.39,110.2c.59.29.15,1.31-.44,1.06a12,12,0,0,1-1.41-.54l-.09,0s0,0,0,0c-.64-.28-1.27-.58-1.9-.88a11.26,11.26,0,0,1-1.35,3.15l.87.37a.49.49,0,0,1,.57,0l1.52,1a.61.61,0,0,1-.62,1.06c-.95-.53-2-1-2.87-1.63a9.76,9.76,0,0,1-2.42,2.22,6.49,6.49,0,0,0,2.94,1.69.7.7,0,0,1-.38,1.35,6,6,0,0,1-3.61-2.43c-5.12,2.53-12.31.77-16-4.57-.35-.51.44-1.09.85-.65,5.54,6,16.5,7.47,19-2.35a.8.8,0,0,1,1.48-.15A32,32,0,0,1,298.39,110.2Z"/><path class="cls-8" d="M291.11,126c.53,4.23-8,3.91-10.22,2.91-1.48-.65-2.69-2.17-1.63-3.76a3.33,3.33,0,0,1,.25-.28.44.44,0,0,1,0-.76C282.14,123,290.53,121.48,291.11,126Zm-2.62-1a3.12,3.12,0,0,0-1.39-.47,14.07,14.07,0,0,0-2.34-.24h-.23l.29.13a3.81,3.81,0,0,1,1.07.05l.22.06A4.76,4.76,0,0,1,288.49,125.06Z"/><path class="cls-7" d="M268.73,48.9c.28-.53,1.1-.06.81.47A92.75,92.75,0,0,1,209.13,95.8c-.16,0-.23-.22-.07-.26A94.47,94.47,0,0,0,268.73,48.9Z"/><path class="cls-7" d="M261.94,49.75c.51-.58,1.34.27.85.86a134.59,134.59,0,0,1-65.6,43c-.07,0-.1-.09,0-.1A149,149,0,0,0,261.94,49.75Z"/><path class="cls-6" d="M262.39,154.66a9.22,9.22,0,0,0,4,3.61A22.68,22.68,0,0,1,246.9,158a.42.42,0,0,0-.19-.06.76.76,0,0,0,.26,0,8.93,8.93,0,0,0,6.64-8c2.35,0,4.69,0,7-.19l.53-.05A8,8,0,0,0,262.39,154.66Z"/><path class="cls-7" d="M261.81,38a.32.32,0,0,1,0,.63c-20.33,0-40.55,4.06-57.54,15.76A74.5,74.5,0,0,0,173.65,99.9c-.15.65-1.12.37-1-.28C179.88,58.82,222.85,35.19,261.81,38Z"/><path class="cls-7" d="M261,131.41c.49-.25,1.16.29.81.81-2.13,3.11-7.23,1.47-7.86-2-.57-3,3-5.94,5.61-3.71.3.26,0,.81-.38.67-2-.75-4.45.65-3.84,3a3,3,0,0,0,2.32,2.19C259,132.63,259.91,132,261,131.41Z"/><path class="cls-7" d="M261.3,43a.21.21,0,0,1,.12.41c-13.81,5.3-27.92,9.4-41,16.49a90.8,90.8,0,0,0-30,25.48c-.37.49-1.2,0-.85-.49C205.26,61.55,235.27,50.08,261.3,43Z"/><path class="cls-8" d="M261.21,137c.74,1.06-.28,2.5-1,3.24a4.81,4.81,0,0,1-2.3,1.27.41.41,0,0,1-.12.73,3.42,3.42,0,0,1-3.48-1.11c-.66-.68-1.58-2.29-1-3.27s1.79-.6,2.54-.13,1,.8,1.65.3c.44-.31.77-.74,1.21-1C259.36,136.53,260.59,136.18,261.21,137Z"/><path class="cls-7" d="M254.38,52.06c.54-.41,1.29.34.75.76-17.28,13.54-36.28,25-56.73,33.13-.25.11-.43-.33-.19-.45C218.19,76.47,237.1,65.62,254.38,52.06Z"/><path class="cls-7" d="M247.77,33.55c.61.08.35,1-.25.91-26.91-3.77-52.44,9.8-65.42,33.42-.09.16-.31,0-.24-.14C194,43.24,220.85,29.91,247.77,33.55Z"/><path class="cls-7" d="M238.27,150.65c.64.14.37,1.1-.26,1a50.4,50.4,0,0,1-29-17.73c-.19-.22.13-.56.33-.32A50.52,50.52,0,0,0,238.27,150.65Z"/><path class="cls-7" d="M236.34,114c.34-.9,1.74-.55,1.46.4A10.12,10.12,0,0,1,224.62,121c-.17,1.58-1.47,3.47-3,3.74-.8.12-1.36-.93-.58-1.37a6.53,6.53,0,0,0,1.74-1.07,4.46,4.46,0,0,0,1-1.69,9.24,9.24,0,0,1-2.29-1.57,29.32,29.32,0,0,1-2.72,2.28c-.67.49-1.53-.63-.88-1.15a32.94,32.94,0,0,1,2.84-1.93,10.36,10.36,0,0,1-1.5-2.38v-.07a19.35,19.35,0,0,1-3.24,2.28.74.74,0,0,1-.75-1.27,22,22,0,0,1,3.76-2,.53.53,0,0,1,.71.31.48.48,0,0,1,.45.25C224.26,122.07,233.46,121.52,236.34,114Z"/><path class="cls-7" d="M236.39,160.39a.54.54,0,0,1-.29,1c-25.21-6.83-42.24-31.18-40.56-57.13,0-.22.36-.22.35,0C195.15,130.46,211.48,152.77,236.39,160.39Z"/><path class="cls-7" d="M235.28,171.32c.62.31.07,1.23-.56.93-16.25-7.79-30.46-21.48-38.27-37.79-.15-.31.3-.58.47-.28C206.19,150.3,218.7,162.76,235.28,171.32Z"/><path class="cls-7" d="M234.77,184.19c.7.29.4,1.45-.33,1.16-35.33-14-55.41-53-45.36-89.84a.29.29,0,0,1,.56.15C181.13,132.37,199.77,169.83,234.77,184.19Z"/><path class="cls-8" d="M232.45,129.31c2,4.13-6.91,5.34-9.24,4.28-1.63-.73-2.84-2.8-1.81-4.49l.11-.13a2.31,2.31,0,0,1,.24-.29l.27-.26.28-.19.17-.1c1.48-.79,3.74-.67,5.1-.65C229.21,127.51,231.62,127.59,232.45,129.31Zm-6,1.12a2.56,2.56,0,0,1-.26-.36.42.42,0,0,1,0-.12h0a2.07,2.07,0,0,0-.74.15A7.06,7.06,0,0,0,226.48,130.43Z"/><path class="cls-7" d="M223.72,195.23c.66.42.06,1.47-.61,1.05-17-10.5-29.45-27.21-37.75-45.17-8.43-18.28-12-39.79-2.24-58.3.14-.26.52,0,.4.24-9.46,19.59-5.11,41.59,4.24,60.36C196.09,170.11,207.84,185.15,223.72,195.23Z"/><path class="cls-1" d="M91.59,441c-.93-8.37-5.31-28.76-17.21-27.5-7.64.81-8.51,8.26-6.8,15.28a20.24,20.24,0,0,0-7.28,0,7.81,7.81,0,0,0-5.43,11.45c5.49,10.74,24.08,9.29,33.34,6.2a3.42,3.42,0,0,0,2.26-2.16A3.77,3.77,0,0,0,91.59,441Z"/><path class="cls-1" d="M449.8,200.35c6.39-5.48,20.79-20.58,13.05-29.7-5-5.87-11.63-2.39-16.46,3a20.21,20.21,0,0,0-4.11-6,7.81,7.81,0,0,0-12.52,2c-5.78,10.58,5.87,25.13,13.65,31a3.42,3.42,0,0,0,3,.66A3.83,3.83,0,0,0,449.8,200.35Z"/><path class="cls-1" d="M76.79,372c-4.54-1.36-6.69,2.05-7.54,6a7.69,7.69,0,0,0-4.78-1.22c-3.89.54-5.33,4.61-3.84,7.91,2.59,5.72,10.69,10.06,16.85,8.6a4.21,4.21,0,0,0,3.93-3.89C81.84,384.5,83.06,373.88,76.79,372Z"/><path class="cls-1" d="M134.33,128.61c-2.09-4.26-6.06-3.51-9.51-1.47a7.59,7.59,0,0,0-2.36-4.32c-3-2.48-7-.77-8.41,2.57-2.42,5.78-.09,14.67,5.17,18.19a4.22,4.22,0,0,0,5.53.23C128.61,140.82,137.22,134.48,134.33,128.61Z"/><path class="cls-1" d="M46.54,400.41c-.28-2.14-1.13-4.18-3.44-4.77a4.84,4.84,0,0,0-5.12,2.3,5.41,5.41,0,0,0-.47.93,9.33,9.33,0,0,0-2.36,0c-1.71.24-2.56,2.39-2.19,3.86a10.13,10.13,0,0,0,10.15,7.73,3.4,3.4,0,0,0,4.22-3.12C47.48,405.1,46.84,402.65,46.54,400.41Z"/><path class="cls-1" d="M60.44,195c-.28-2.14-1.13-4.18-3.44-4.76a4.82,4.82,0,0,0-5.12,2.29,5.16,5.16,0,0,0-.47.94,8.49,8.49,0,0,0-2.36,0c-1.71.23-2.56,2.39-2.19,3.86A10.13,10.13,0,0,0,57,205.09,3.4,3.4,0,0,0,61.23,202C61.38,199.73,60.74,197.27,60.44,195Z"/><path class="cls-1" d="M49.41,345.39c-4-4.27-9.63-2.57-13.13,1.24a24.68,24.68,0,0,0-5.51,10.64,14.13,14.13,0,0,0-8.36-1.89,7.39,7.39,0,0,0-6.2,9.13c1.11,4.81,6.09,8.34,10.1,10.64a33.17,33.17,0,0,0,17.39,4.31,3.12,3.12,0,0,0,2.74-1.75c4.84-2.42,5.9-9.32,6.46-14.27C53.54,357.9,53.48,349.78,49.41,345.39Z"/><path class="cls-1" d="M92.57,155.26c.33-5.83-4.82-8.73-10-8.61a24.56,24.56,0,0,0-11.48,3.4,14.15,14.15,0,0,0-4.43-7.34,7.41,7.41,0,0,0-10.88,1.85c-2.7,4.14-1.79,10.18-.67,14.66A33.15,33.15,0,0,0,64,174.75a3.16,3.16,0,0,0,3.17.76c5.1,1.81,10.8-2.21,14.76-5.23C86.41,166.9,92.22,161.24,92.57,155.26Z"/><path class="cls-1" d="M424,446.74a7.46,7.46,0,0,0-3.81,0l-.16.05s0-.07,0-.11a5.54,5.54,0,0,0-2.41-3.38,6.19,6.19,0,0,0-7.4,1c-3.88,3.93-2.23,12.36-.05,16.72a2.48,2.48,0,0,0,1.56,1.34,3.21,3.21,0,0,0,2,.47c5.28-.58,12.32-3.51,14-9.15A5.5,5.5,0,0,0,424,446.74Z"/><path class="cls-1" d="M491.4,144.49a7.35,7.35,0,0,0-3.81,0l-.16.05s0-.08,0-.11a5.53,5.53,0,0,0-2.42-3.38,6.18,6.18,0,0,0-7.39,1c-3.88,3.92-2.23,12.36-.06,16.71a2.54,2.54,0,0,0,1.57,1.35,3.21,3.21,0,0,0,2,.47c5.28-.58,12.32-3.51,14-9.15A5.5,5.5,0,0,0,491.4,144.49Z"/><path class="cls-1" d="M450.41,406.36c-3.4-6.23-10.36-5.66-16.13-2.85-.92-2.86-2.38-5.39-5.24-6.51-4.52-1.75-8.73,1.64-10.93,5.38-5.47,9.32,0,20.34,7.69,26.34a3.73,3.73,0,0,0,3.78.49,5.28,5.28,0,0,0,4.31-.43C440.75,424.9,455.84,416.27,450.41,406.36Z"/><path class="cls-1" d="M464.44,435.24c-2.25-.56-4.22.09-6.21.81a1.63,1.63,0,0,0-.07-.26,5.37,5.37,0,0,0-2.52-2.94c-2.61-1.27-5.14.16-6.41,2.52-2.27,4.23-2.54,10,0,14.17a3.67,3.67,0,0,0,4,3,25.6,25.6,0,0,0,11.26-3.23c2.8-1.61,5.85-3.83,5.82-7.41C470.26,438.61,467.49,436,464.44,435.24Z"/><path class="cls-1" d="M429.63,112.41c-2.26.53-3.72,2-5.15,3.57l-.19-.21a5.31,5.31,0,0,0-3.58-1.45c-2.9.06-4.5,2.49-4.54,5.17-.09,4.8,2.3,10,6.45,12.61a3.68,3.68,0,0,0,4.93.82,25.7,25.7,0,0,0,8.53-8c1.76-2.71,3.45-6.09,1.79-9.25C436.35,112.74,432.68,111.68,429.63,112.41Z"/><path class="cls-1" d="M480.33,387.3a6.24,6.24,0,0,0-2,.22,5.75,5.75,0,0,0-1.51-2.22,5.61,5.61,0,0,0-7.54-.16c-1.93,1.86-2.14,5.06-2.18,7.58-.05,2.85.1,6.23,1.49,8.77a1.67,1.67,0,0,0,.12.16,4.56,4.56,0,0,0,5.74,2,42.06,42.06,0,0,0,7.25-4.78c2.21-1.63,3.82-3.73,3.61-6.6A5.4,5.4,0,0,0,480.33,387.3Z"/><path class="cls-1" d="M474.41,211a6.15,6.15,0,0,0-2,.22A5.78,5.78,0,0,0,470.9,209a5.6,5.6,0,0,0-7.54-.16c-1.93,1.86-2.14,5-2.18,7.58-.05,2.84.1,6.23,1.49,8.77a.88.88,0,0,0,.12.15,4.55,4.55,0,0,0,5.74,2,42.06,42.06,0,0,0,7.25-4.78c2.21-1.64,3.82-3.73,3.61-6.6A5.39,5.39,0,0,0,474.41,211Z"/><text class="cls-9" transform="translate(92.58 424.41)">Blessed<tspan x="0" y="66.38" xml:space="preserve">    P</tspan><tspan class="cls-10" x="133.32" y="66.38">r</tspan><tspan x="167.67" y="66.38">incess</tspan></text></svg>