<svg id="Layer_1" data-name="Layer 1" xmlns="http://www.w3.org/2000/svg" viewBox="0 0 281.16 86.76"><defs><style>.cls-1{fill:#cda6a6;}.cls-2{fill:#9d2d51;}.cls-3{fill:#221f20;}</style></defs><title>logo</title><path class="cls-1" d="M48.81,83.14c-.1,0-.1-.1-.2-.1a2.61,2.61,0,0,0-1.93-.82,42.66,42.66,0,0,0-8.71.41,12.88,12.88,0,0,0-7.71-2.13c7.1-4,13.58-11.25,15.71-19.56,2.74-11-3-11-3-11-6-.2-12.06,9.33-15.5,15.92.2-2.23-.41-4.87-2.44-6.09a1.62,1.62,0,0,0-1.82,0c-.81.82.5,3.75.3,5.68-1.21,8.62-4,17.74-5.77,27.47a34.92,34.92,0,0,0-4.87,6.38c-10.14,16.83,4.66,17.64,4.66,17.64,17.74,1.21,23-21.59,23-21.59,1.22-5.57.51-9.12-1.22-11.35a34.81,34.81,0,0,1,9.23-.2C48.81,83.75,49,83.34,48.81,83.14Zm-23.21-8s9.93-23.82,17.13-23.31c0,0,2.84.61-.61,9.93A30.18,30.18,0,0,1,24.38,79.89C24.79,78.27,25.2,76.65,25.6,75.13ZM22.36,88.61c.4-1.72.81-3.45,1.21-5.27.92-.2,1.93-.61,2.84-.91,2.54-.41,5.88-.51,8.21.91A34.82,34.82,0,0,0,22.36,89ZM37,94.39c-4.66,17.73-21,24.22-25,18.24-2.54-3.45-.41-10.54,5.27-16.82-.31,2.23-.51,4.56-.71,6.89-.1,2,.51,4.86,2.63,6,.41.2.71.2.81,0a1.44,1.44,0,0,0,.41-1c-.51-4.46.51-10.94,1.52-16.11a41,41,0,0,1,14.29-7C37.66,86.38,38.27,89.42,37,94.39Z" transform="translate(-9.28 -30.45)"/><path class="cls-1" d="M62.09,66.11c5.57-14.39.4-15.91.4-15.91-5.27-2.13-9.32,5.47-12,14.19a154.39,154.39,0,0,0-3.65,16.72c-1.92,12.67-.4,22.3,3.35,23.11,3.44.71,7.5-9.43,7.5-9.43a74.84,74.84,0,0,0,3.34-9.93,2.72,2.72,0,0,0-.1-2c0-.1,0-.2-.1-.2-.1-.3-.51-.2-.61,0a71.24,71.24,0,0,1-3.75,11.25c-3.65,8.51-5.88,8.21-5.88,8.21-1.52-.2-1.31-8.21.21-19.26A42.35,42.35,0,0,0,62.09,66.11ZM62,51.41s3.95.81-1.63,13.89a48.07,48.07,0,0,1-9.12,14.39C52.05,72.8,55.4,50.1,62,51.41Z" transform="translate(-9.28 -30.45)"/><path class="cls-1" d="M77.39,82.83a.31.31,0,0,1-.1-.2c-.1-.3-.51-.2-.61,0-2.23,7.8-3.14,10.44-4.76,14.19-3.75,8.82-5.88,8.31-5.88,8.31-1.52-.3-2.74-3-3.24-9.12a54.85,54.85,0,0,1-.31-7.2c3.95-1.42,6-6,6-6,1.93-4.56-.1-6.79-.1-6.79-1.52-2-5.47-1-7.8,4.77s-1.73,13.78-1.73,13.78c.71,7.7,2.94,11.86,6.69,12.57S73,97.83,73,97.83a93.15,93.15,0,0,0,4.46-13A3.48,3.48,0,0,0,77.39,82.83ZM63,84.66c1-5.17,4-8.92,4.76-8.11s0,5-1.21,6.59a15.52,15.52,0,0,1-3.86,3.75C62.8,86.08,62.9,85.37,63,84.66Z" transform="translate(-9.28 -30.45)"/><path class="cls-1" d="M90.26,91a2.05,2.05,0,0,0-.4-.81,1.8,1.8,0,0,0-1.12-.61,11.14,11.14,0,0,0-8,1.52c-.3-1.72-.5-2.94-.5-2.94-.91-4.66,0-9.72.4-12a.71.71,0,0,0-.91-.81,7.25,7.25,0,0,0-3.44,2.44s-1.93,3.54.3,11.75c.4,1.32.71,2.64,1,3.85-4.46,4.16-5.88,10.14-4.66,12.47,1.32,2.64,4.56,1.83,4.56,1.83,7.2-2,4.36-12.07,4.36-12.07-.3-1-.51-2-.71-2.93C85.5,90.23,88.74,91,90,91.45,90.16,91.55,90.36,91.35,90.26,91ZM77.39,106.55a1.91,1.91,0,0,1-2.33-.1c-2.33-1.62-.41-6.29-.41-6.29A17.25,17.25,0,0,1,78,95.1C79.21,100.77,79.32,105,77.39,106.55Z" transform="translate(-9.28 -30.45)"/><path class="cls-1" d="M102.63,91a2.07,2.07,0,0,0-.41-.81,1.78,1.78,0,0,0-1.11-.61,11.14,11.14,0,0,0-8,1.52l-.51-2.94c-.91-4.66,0-9.72.41-12a.71.71,0,0,0-.91-.81,7.23,7.23,0,0,0-3.45,2.44s-1.93,3.54.3,11.75c.41,1.32.71,2.64,1,3.85-4.46,4.16-5.88,10.14-4.67,12.47,1.32,2.64,4.57,1.83,4.57,1.83,7.19-2,4.35-12.07,4.35-12.07-.3-1-.5-2-.71-2.93,4.36-2.54,7.61-1.73,8.82-1.32C102.53,91.55,102.73,91.35,102.63,91ZM89.75,106.55a1.91,1.91,0,0,1-2.33-.1c-2.33-1.62-.4-6.29-.4-6.29a17.26,17.26,0,0,1,3.34-5.06C91.58,100.77,91.68,105,89.75,106.55Z" transform="translate(-9.28 -30.45)"/><path class="cls-1" d="M119.25,82.83a.31.31,0,0,1-.1-.2c-.11-.3-.51-.2-.61,0-2.23,7.8-3.14,10.44-4.77,14.19-3.75,8.82-5.87,8.31-5.87,8.31-1.52-.3-2.74-3-3.25-9.12a56,56,0,0,1-.3-7.2c4-1.42,6-6,6-6,1.92-4.56-.1-6.79-.1-6.79-1.52-2-5.48-1-7.81,4.77s-1.72,13.78-1.72,13.78c.71,7.7,2.94,11.86,6.69,12.57s7.5-9.33,7.5-9.33a94.56,94.56,0,0,0,4.46-13A3.48,3.48,0,0,0,119.25,82.83Zm-14.39,1.83c1-5.17,4-8.92,4.76-8.11s0,5-1.22,6.59a15.3,15.3,0,0,1-3.85,3.75C104.65,86.08,104.75,85.37,104.86,84.66Z" transform="translate(-9.28 -30.45)"/><path class="cls-1" d="M142,82.83v-.2c-.2-.3-.61-.2-.61,0-1.82,6.18-2.23,7.7-3.75,11.25-3.75,8.51-5.88,8.21-5.88,8.21-1.52-.2-1.31-8.51.21-19.87,2.33-4.25,5-11.35,6.69-16.31C144,50.4,140.53,50,140.53,50c-3.65-.81-6.59,6.19-8.92,14.4-1.32,4.66-2.33,9.42-2.94,12.77a2.63,2.63,0,0,0-1.72-.92c-6.59-1.31-10.74,11.15-10.74,11.15-4.67,13.89,1.52,15.21,1.52,15.21,4,1.21,7.29-5,9.32-10.44.1,6.89,1.62,11.55,4.16,12.06,3.44.71,7.5-9.43,7.5-9.43a84,84,0,0,0,3.44-9.93A3.48,3.48,0,0,0,142,82.83ZM140.43,51s.81,3.14-3,13.48c-1.72,4.76-3.24,8.51-4.46,11.35C134.45,66.72,137.59,50,140.43,51ZM127.56,83.85c-.91,3.65-4.36,16.92-8.92,17.13,0,0-4.16-.82,2.74-15.71,0,0,3.54-7.61,5.47-7.5C128.47,77.87,127.86,81.52,127.56,83.85Z" transform="translate(-9.28 -30.45)"/><path class="cls-1" d="M146.51,102.9c-.1,1-.71,1.72-1.32,1.72s-1-.71-1-1.72.71-1.72,1.32-1.72,1.11.81,1,1.72Z" transform="translate(-9.28 -30.45)"/><path class="cls-2" d="M197.39,75.74s-1.42-.61-.61-2.64c.81-1.62,3.55-.4,2.94,1.52a1.75,1.75,0,0,1-2.33,1.12Z" transform="translate(-9.28 -30.45)"/><path class="cls-2" d="M191.82,82.43c-1.42.4-4.67,1.82-6.09,4.46-2.12,4-3.34,12.16-3.54,13.48-.41,2.13-1.52,2-1.52,2-3.25.41-2.54-8.61-2.54-8.61a132.26,132.26,0,0,1,2.64-17.53.64.64,0,0,1,.91-.41,3.78,3.78,0,0,1,1.62,1.72,3.14,3.14,0,0,1,.41,2.54c-.31,1.72-3.45,16.31-2.84,19.05,0,0,1.62-8.92,3.65-13.28,0,0,1.52-3.75,3.34-5a3.31,3.31,0,0,1,1.73-.41,4.22,4.22,0,0,1,2.53,1,.56.56,0,0,1-.3.91Z" transform="translate(-9.28 -30.45)"/><path class="cls-2" d="M207.83,84.86a49,49,0,0,1-2.94,8.51s-3.65,9.23-8.41,8.72c-4.46-.51-3.35-9.32-3.35-9.32a105.81,105.81,0,0,1,2.23-15.41c0-.41.51-.61.91-.41a5,5,0,0,1,1.63,1.63,4.52,4.52,0,0,1,.4,2.53c-.4,1.82-1.52,7.7-2.23,12.16,0,0-.91,6.19.61,6.89,3.34,1.42,7.09-7.8,7.09-7.8a85.25,85.25,0,0,0,3.35-9.73c0-.2.4-.3.61,0v.2a2.82,2.82,0,0,1,.1,2Z" transform="translate(-9.28 -30.45)"/><path class="cls-2" d="M229.62,84.86a57.83,57.83,0,0,1-3.45,9.32s-3.95,9.73-7.5,9.43c-3.34-.41-5.57-6.49-2.63-17.53,2.63-9.73,1-8.92,1-8.92-2.53.1-7.09,17.23-7.09,17.23-.92,3.14-2.34,2.43-2.34,2.43-4.35-1.42-.71-16.52.11-20.07,0-.4.5-.61.91-.4A5,5,0,0,1,210.26,78a4.31,4.31,0,0,1,.41,2.53c-.71,3-3,14.6-2.44,14.8,0,0,4.46-20.07,8.92-19.76,0,0,5.07-.71,2.84,8.81-2.74,11.35-2.33,16.93-.81,17.13,0,0,2.23.31,5.88-8.21a77.59,77.59,0,0,0,3.75-10.64c.1-.2.5-.3.61,0a.35.35,0,0,1,.1.2,2.82,2.82,0,0,1,.1,2Z" transform="translate(-9.28 -30.45)"/><path class="cls-2" d="M244.11,84.86a61.35,61.35,0,0,1-3.75,11s-4.15,9-8,9.12c-7.19.1-8.31-7.5-6.79-14.19a42.22,42.22,0,0,1,4-10.44c3.14-5.47,7.09-6.08,8.41-3.85a5.85,5.85,0,0,1,.3,4.36,2.15,2.15,0,0,1-.71.91c-.3.1-.5.3-.81.3-.4.21-.81-.3-.61-.71.81-1.72,1.63-3.75,1.12-4.35-.61-.92-4.16,1.52-6.79,9.42,0,0-5.58,16.93,1.92,17,0,0,2.64.1,6.9-8.51,1.82-3.65,2.12-5.17,4.05-12.37.1-.2.51-.3.61,0,.1.1.1.1.1.2a2.82,2.82,0,0,1,.1,2Z" transform="translate(-9.28 -30.45)"/><path class="cls-2" d="M290.43,102.9c-.1,1-.71,1.72-1.32,1.72s-1-.71-1-1.72.71-1.72,1.31-1.72,1.12.81,1,1.72Z" transform="translate(-9.28 -30.45)"/><path class="cls-2" d="M180.36,49.89c-6-.2-12.06,9.33-15.5,15.92.1-2.23-.41-4.87-2.44-6.09a1.62,1.62,0,0,0-1.82,0c-.81.82.61,2.74.3,5.68-.71,6.18-2.84,13.89-4.66,22.5-2.84.61-3.65.3-3.65-.51,0-.2-.2-.2-.3-.1a.86.86,0,0,0-.1,1.52c.91.81,2.53.81,3.75.61A120.37,120.37,0,0,0,153.1,111c0,2,.51,5,2.63,6.08a1,1,0,0,0,.92,0c.4-.3.3-1,.3-1-.71-7.5,1.82-22.2,2.84-27.47l.1-.1c9.32-3.24,20.78-16.72,23.51-27.57C186.14,49.89,180.36,49.89,180.36,49.89Zm-.81,11.86c-3.34,9-11.05,20.58-19.26,24.73.82-3.75,1.83-7.6,2.74-11.35,0,0,9.83-23.82,17.13-23.31C180.16,51.82,183,52.43,179.55,61.75Z" transform="translate(-9.28 -30.45)"/><path class="cls-2" d="M260.33,82.83a.31.31,0,0,1-.1-.2c-.11-.3-.51-.2-.61,0-2.23,7.8-3.14,10.44-4.77,14.19-3.75,8.82-5.87,8.31-5.87,8.31-1.52-.3-2.74-3-3.25-9.12a56,56,0,0,1-.3-7.2c3.95-1.42,6-6,6-6,1.92-4.56-.1-6.79-.1-6.79-1.52-2-5.48-1-7.81,4.77s-1.72,13.78-1.72,13.78c.71,7.7,2.94,11.86,6.69,12.57s7.5-9.33,7.5-9.33a94.56,94.56,0,0,0,4.46-13A3.48,3.48,0,0,0,260.33,82.83Zm-14.4,1.83c1-5.17,4.06-8.92,4.77-8.11s0,5-1.22,6.59a15.3,15.3,0,0,1-3.85,3.75C245.73,86.08,245.83,85.37,245.93,84.66Z" transform="translate(-9.28 -30.45)"/><path class="cls-2" d="M273.2,91a1.94,1.94,0,0,0-.41-.81,1.78,1.78,0,0,0-1.11-.61,11.14,11.14,0,0,0-8,1.52l-.51-2.94c-.91-4.66,0-9.72.41-12a.71.71,0,0,0-.91-.81,7.23,7.23,0,0,0-3.45,2.44s-1.92,3.54.31,11.75c.4,1.32.71,2.64,1,3.85-4.46,4.16-5.88,10.14-4.66,12.47,1.31,2.64,4.56,1.83,4.56,1.83,7.19-2,4.36-12.07,4.36-12.07-.31-1-.51-2-.71-2.93,4.35-2.54,7.6-1.73,8.81-1.32C273.1,91.55,273.3,91.35,273.2,91Zm-12.87,15.51a1.91,1.91,0,0,1-2.33-.1c-2.34-1.62-.41-6.29-.41-6.29a17.46,17.46,0,0,1,3.34-5.06C262.15,100.77,262.25,105,260.33,106.55Z" transform="translate(-9.28 -30.45)"/><path class="cls-2" d="M285.56,91a2.05,2.05,0,0,0-.4-.81,1.8,1.8,0,0,0-1.12-.61,11.12,11.12,0,0,0-8,1.52c-.31-1.72-.51-2.94-.51-2.94-.91-4.66,0-9.72.4-12a.7.7,0,0,0-.91-.81,7.25,7.25,0,0,0-3.44,2.44s-1.93,3.54.3,11.75c.41,1.32.71,2.64,1,3.85-4.46,4.16-5.87,10.14-4.66,12.47,1.32,2.64,4.56,1.83,4.56,1.83,7.2-2,4.36-12.07,4.36-12.07-.3-1-.51-2-.71-2.93,4.36-2.54,7.6-1.73,8.82-1.32C285.46,91.55,285.66,91.35,285.56,91Zm-12.87,15.51a1.91,1.91,0,0,1-2.33-.1c-2.33-1.62-.41-6.29-.41-6.29a17.45,17.45,0,0,1,3.35-5.06C274.52,100.77,274.62,105,272.69,106.55Z" transform="translate(-9.28 -30.45)"/><path class="cls-3" d="M211.58,56.64c.73-2,1.62-4,2.14-6.11.79-3.14,1.31-6.34,2-9.51a3.4,3.4,0,0,1,.51-.9,3.44,3.44,0,0,1,.7.67,69.06,69.06,0,0,1,6.81,17.88,3.54,3.54,0,0,0,.17.47c1.41-1.11,2.71-2.25,4.12-3.24,3.17-2.24,6.39-4.39,9.59-6.58a11.68,11.68,0,0,0,1.33-1c.48-.43.81-.3,1.15.22-1.13,1.8-2.26,3.62-3.41,5.43a63.74,63.74,0,0,0-5.43,10.55c-1.47,3.68-2.88,7.39-4.31,11.09-.33.86-.44.85-1.28.33a27.56,27.56,0,0,0-8-3.28,31.18,31.18,0,0,0-10-.7c-.26,0-.55-.22-.82-.33.25-.22.48-.59.75-.62a26.53,26.53,0,0,1,11,.86c2.53.79,5,1.83,7.57,2.8a133.59,133.59,0,0,1,11.2-24.14,29.15,29.15,0,0,0-2.6,1.54c-2.74,2-5.45,4.13-8.16,6.21-.78.6-1.52,1.25-2.28,1.88s-1.19.63-1.41-.49a63.61,63.61,0,0,0-3.56-11.51c-.73-1.76-1.6-3.46-2.41-5.19a4,4,0,0,0-.33-.42c-.31,1.65-.57,3.18-.9,4.7a50.73,50.73,0,0,1-3.35,10c-.49,1.09-.68,1.1-1.51.29-3.06-3-6.12-6-9.21-9-1.41-1.35-2.9-2.6-4.36-3.9L197,45l6.89,21.11c1.22-.22,2.4-.46,3.58-.63a27.93,27.93,0,0,1,15.69,2.26c.23.1.51.53.46.71-.15.49-.55.35-.93.18a26.44,26.44,0,0,0-12.6-2.36,42.41,42.41,0,0,0-5.82.9c-.82.17-1.11.12-1.38-.77-1.32-4.26-2.74-8.49-4.13-12.72-1.08-3.33-2.17-6.66-3.23-10a3.31,3.31,0,0,1,0-1.08,3.36,3.36,0,0,1,1,.36A173.26,173.26,0,0,1,210.74,56a3.51,3.51,0,0,1,.44.75Z" transform="translate(-9.28 -30.45)"/><path class="cls-2" d="M217.9,32.3c.31-.22.55-.41.81-.57a1.94,1.94,0,0,1,2.26.15,1.85,1.85,0,0,1,.25,2.23,4.33,4.33,0,0,1-.89,1.06c-1.2,1-2.41,2-3.66,2.92a.79.79,0,0,1-.76,0,6.67,6.67,0,0,1-1.77-5.58,3,3,0,0,1,.75-1.5,1.59,1.59,0,0,1,2.7.55C217.7,31.76,217.78,32,217.9,32.3Z" transform="translate(-9.28 -30.45)"/><path class="cls-2" d="M192.09,34.68c.09-.26.16-.48.24-.69a1.78,1.78,0,0,1,3.51.65,6.76,6.76,0,0,1-.24,1.54c-.35,1.25-.79,2.48-1.12,3.74-.18.7-.47.74-1.1.54a6.88,6.88,0,0,1-4.15-3.21,3.58,3.58,0,0,1-.44-1.3,1.72,1.72,0,0,1,.83-1.79,1.69,1.69,0,0,1,1.95.17Z" transform="translate(-9.28 -30.45)"/><path class="cls-2" d="M244.08,41.16a9.12,9.12,0,0,1,1.57-.25,1.58,1.58,0,0,1,1.4,2.5,4.27,4.27,0,0,1-1.63,1.34,37.9,37.9,0,0,1-3.86,1.55,1,1,0,0,1-.92-.28,5.88,5.88,0,0,1-.32-5.58,2.25,2.25,0,0,1,2.37-1.52C243.57,39.11,243.94,39.72,244.08,41.16Z" transform="translate(-9.28 -30.45)"/></svg>